<svg width="80" height="80" viewBox="0 0 80 80" fill="none" xmlns="http://www.w3.org/2000/svg">
<path d="M39.8883 3.33331L5 15.475L10.5133 60.68L39.925 76.6666L69.4883 60.4633L75 15.26L39.8883 3.33331Z" fill="#BDBDBD"/>
<path d="M71.3633 17.545L40 6.89166V72.825L66.3867 58.3617L71.3633 17.545Z" fill="#B71C1C"/>
<path d="M39.9014 6.85834L8.63477 17.74L13.6131 58.5717L39.9181 72.8683L39.9998 72.825V6.89167L39.9014 6.85834Z" fill="#DD2C00"/>
<path d="M40 9.99335V25.84L54.2967 56.6667H61.645L40 9.99335Z" fill="#BDBDBD"/>
<path d="M18.3555 56.6667H25.7038L40.0005 25.84V9.99335L18.3555 56.6667Z" fill="#EEEEEE"/>
<path d="M40 40H50V46.6667H40V40Z" fill="#BDBDBD"/>
<path d="M30 40H40V46.6667H30V40Z" fill="#EEEEEE"/>
</svg>
