<svg width="1440" height="236" viewBox="0 0 1440 236" fill="none" xmlns="http://www.w3.org/2000/svg">
<circle cx="51.8828" cy="104.253" r="6.5" fill="#9549E1" fill-opacity="0.05"/>
<circle cx="170.5" cy="199.5" r="6.5" fill="#9549E1" fill-opacity="0.05"/>
<path d="M49.1045 222.857L64.9198 199.599L80.7352 222.857" stroke="#9549E1" stroke-opacity="0.05" stroke-width="8" stroke-linecap="round" stroke-linejoin="round"/>
<path d="M155 103.653V89.0009C155 83.4776 159.478 79 165.001 79V79C170.524 79 175.002 83.4776 175.002 89.0009V103.653V89.0009C175.002 83.4776 179.479 79 185.003 79C190.526 79 195.003 83.4776 195.003 89.0009V103.653" stroke="#9549E1" stroke-opacity="0.05" stroke-width="8" stroke-linecap="round" stroke-linejoin="round"/>
<path d="M122.831 21H98.1777" stroke="#9549E1" stroke-opacity="0.05" stroke-width="8" stroke-linecap="round" stroke-linejoin="round"/>
<path d="M277.189 139.756C270.767 139.756 265.561 144.963 265.561 151.385C265.561 157.808 270.767 163.014 277.189 163.014C283.612 163.014 288.818 157.808 288.818 151.385C288.818 144.963 294.025 139.756 300.447 139.756C306.87 139.756 312.076 144.963 312.076 151.385C312.076 157.808 306.87 163.014 300.447 163.014" stroke="#9549E1" stroke-opacity="0.05" stroke-width="8" stroke-linecap="round"/>
<circle cx="371.443" cy="104.253" r="6.5" fill="#9549E1" fill-opacity="0.05"/>
<circle cx="490.061" cy="199.5" r="6.5" fill="#9549E1" fill-opacity="0.05"/>
<path d="M368.665 222.857L384.48 199.599L400.296 222.857" stroke="#9549E1" stroke-opacity="0.05" stroke-width="8" stroke-linecap="round" stroke-linejoin="round"/>
<path d="M474.561 103.653V89.0009C474.561 83.4776 479.038 79 484.561 79V79C490.085 79 494.562 83.4776 494.562 89.0009V103.653V89.0009C494.562 83.4776 499.04 79 504.563 79C510.086 79 514.564 83.4776 514.564 89.0009V103.653" stroke="#9549E1" stroke-opacity="0.05" stroke-width="8" stroke-linecap="round" stroke-linejoin="round"/>
<path d="M442.392 21H417.738" stroke="#9549E1" stroke-opacity="0.05" stroke-width="8" stroke-linecap="round" stroke-linejoin="round"/>
<path d="M296.189 3.99978C302.612 3.99978 307.818 9.20623 307.818 15.6287C307.818 22.0512 302.612 27.2576 296.189 27.2576C289.767 27.2576 284.561 22.0512 284.561 15.6287C284.561 9.20623 289.767 3.99978 296.189 3.99978Z" stroke="#9549E1" stroke-opacity="0.05" stroke-width="8" stroke-linecap="round"/>
<path d="M596.751 139.756C590.329 139.756 585.122 144.963 585.122 151.385C585.122 157.808 590.329 163.014 596.751 163.014C603.173 163.014 608.38 157.808 608.38 151.385C608.38 144.963 613.586 139.756 620.009 139.756C626.431 139.756 631.638 144.963 631.638 151.385C631.638 157.808 626.431 163.014 620.009 163.014" stroke="#9549E1" stroke-opacity="0.05" stroke-width="8" stroke-linecap="round"/>
<circle cx="691.005" cy="104.253" r="6.5" fill="#9549E1" fill-opacity="0.05"/>
<circle cx="809.622" cy="199.5" r="6.5" fill="#9549E1" fill-opacity="0.05"/>
<path d="M688.227 222.857L704.042 199.599L719.857 222.857" stroke="#9549E1" stroke-opacity="0.05" stroke-width="8" stroke-linecap="round" stroke-linejoin="round"/>
<path d="M794.122 103.653V89.0009C794.122 83.4776 798.6 79 804.123 79V79C809.646 79 814.124 83.4776 814.124 89.0009V103.653V89.0009C814.124 83.4776 818.601 79 824.125 79C829.648 79 834.126 83.4776 834.126 89.0009V103.653" stroke="#9549E1" stroke-opacity="0.05" stroke-width="8" stroke-linecap="round" stroke-linejoin="round"/>
<path d="M761.953 21H737.3" stroke="#9549E1" stroke-opacity="0.05" stroke-width="8" stroke-linecap="round" stroke-linejoin="round"/>
<path d="M615.751 3.99978C622.173 3.99978 627.38 9.20623 627.38 15.6287C627.38 22.0512 622.173 27.2576 615.751 27.2576C609.329 27.2576 604.122 22.0512 604.122 15.6287C604.122 9.20623 609.329 3.99978 615.751 3.99978Z" stroke="#9549E1" stroke-opacity="0.05" stroke-width="8" stroke-linecap="round"/>
<path d="M916.312 139.756C909.889 139.756 904.683 144.963 904.683 151.385C904.683 157.808 909.889 163.014 916.312 163.014C922.734 163.014 927.94 157.808 927.94 151.385C927.94 144.963 933.147 139.756 939.569 139.756C945.992 139.756 951.198 144.963 951.198 151.385C951.198 157.808 945.992 163.014 939.569 163.014" stroke="#9549E1" stroke-opacity="0.05" stroke-width="8" stroke-linecap="round"/>
<circle cx="1010.57" cy="104.253" r="6.5" fill="#9549E1" fill-opacity="0.05"/>
<circle cx="1129.18" cy="199.5" r="6.5" fill="#9549E1" fill-opacity="0.05"/>
<path d="M1007.79 222.857L1023.6 199.599L1039.42 222.857" stroke="#9549E1" stroke-opacity="0.05" stroke-width="8" stroke-linecap="round" stroke-linejoin="round"/>
<path d="M1113.68 103.653V89.0009C1113.68 83.4776 1118.16 79 1123.68 79V79C1129.21 79 1133.68 83.4776 1133.68 89.0009V103.653V89.0009C1133.68 83.4776 1138.16 79 1143.69 79C1149.21 79 1153.69 83.4776 1153.69 89.0009V103.653" stroke="#9549E1" stroke-opacity="0.05" stroke-width="8" stroke-linecap="round" stroke-linejoin="round"/>
<path d="M1081.51 21H1056.86" stroke="#9549E1" stroke-opacity="0.05" stroke-width="8" stroke-linecap="round" stroke-linejoin="round"/>
<path d="M935.312 3.99978C941.734 3.99978 946.94 9.20623 946.94 15.6287C946.94 22.0512 941.734 27.2576 935.312 27.2576C928.889 27.2576 923.683 22.0512 923.683 15.6287C923.683 9.20623 928.889 3.99978 935.312 3.99978Z" stroke="#9549E1" stroke-opacity="0.05" stroke-width="8" stroke-linecap="round"/>
<path d="M1235.87 139.756C1229.45 139.756 1224.24 144.963 1224.24 151.385C1224.24 157.808 1229.45 163.014 1235.87 163.014C1242.3 163.014 1247.5 157.808 1247.5 151.385C1247.5 144.963 1252.71 139.756 1259.13 139.756C1265.55 139.756 1270.76 144.963 1270.76 151.385C1270.76 157.808 1265.55 163.014 1259.13 163.014" stroke="#9549E1" stroke-opacity="0.05" stroke-width="8" stroke-linecap="round"/>
<circle cx="1330.13" cy="104.253" r="6.5" fill="#9549E1" fill-opacity="0.05"/>
<path d="M1327.35 222.857L1343.16 199.599L1358.98 222.857" stroke="#9549E1" stroke-opacity="0.05" stroke-width="8" stroke-linecap="round" stroke-linejoin="round"/>
<path d="M1433.24 103.653V89.0009C1433.24 83.4776 1437.72 79 1443.25 79V79C1448.77 79 1453.25 83.4776 1453.25 89.0009V103.653V89.0009C1453.25 83.4776 1457.72 79 1463.25 79C1468.77 79 1473.25 83.4776 1473.25 89.0009V103.653" stroke="#9549E1" stroke-opacity="0.05" stroke-width="8" stroke-linecap="round" stroke-linejoin="round"/>
<path d="M1401.08 21H1376.42" stroke="#9549E1" stroke-opacity="0.05" stroke-width="8" stroke-linecap="round" stroke-linejoin="round"/>
<path d="M1254.87 3.99978C1261.3 3.99978 1266.5 9.20623 1266.5 15.6287C1266.5 22.0512 1261.3 27.2576 1254.87 27.2576C1248.45 27.2576 1243.24 22.0512 1243.24 15.6287C1243.24 9.20623 1248.45 3.99978 1254.87 3.99978Z" stroke="#9549E1" stroke-opacity="0.05" stroke-width="8" stroke-linecap="round"/>
</svg>
