<svg width="80" height="80" viewBox="0 0 80 80" fill="none" xmlns="http://www.w3.org/2000/svg">
<path d="M68.3337 8.33331H11.667L16.667 65L40.0003 71.6666L63.3337 65L68.3337 8.33331Z" fill="#0277BD"/>
<path d="M40 13.3333V66.5L58.6667 61.1666L62.8333 13.3333H40Z" fill="#039BE5"/>
<path d="M55.1667 21.6667H40V28.3334H48.1667L47.6667 35H40V41.6667H47.3333L46.8333 49.1667L40 51.5V58.5L53.1667 54.1667L54.3333 35L55.1667 21.6667Z" fill="white"/>
<path d="M40.0003 21.6667V28.3334H25.167L24.667 21.6667H40.0003ZM32.3337 35L32.667 41.6667H40.0003V35H32.3337ZM33.0003 45H26.3337L26.8337 54.1667L40.0003 58.5V51.5L33.167 49.1667L33.0003 45Z" fill="#EEEEEE"/>
</svg>
