<svg width="80" height="80" viewBox="0 0 80 80" fill="none" xmlns="http://www.w3.org/2000/svg">
<g clip-path="url(#clip0_653_522)">
<path d="M79.2115 33.0784C78.9949 32.9084 76.9698 31.4 72.6982 31.4C71.5698 31.405 70.4448 31.5 69.3332 31.685C68.5065 26.095 63.9682 23.4684 63.7582 23.3467L62.6115 22.6934L61.8565 23.7667C60.9115 25.21 60.0765 26.7 59.6715 28.3717C58.9065 31.5634 59.3715 34.56 61.0149 37.1217C59.0282 38.2134 55.6432 38.31 54.9998 38.3334H2.63652C1.25985 38.335 0.143182 39.4334 0.134849 40.79C0.0731821 45.345 0.723182 50.045 2.31152 54.3217C4.12652 59.0184 6.82818 62.4784 10.3415 64.595C14.2782 66.9734 20.6749 68.3334 27.9265 68.3334C31.2015 68.3434 34.4715 68.0517 37.6915 67.46C42.1682 66.6484 46.4765 65.105 50.4365 62.8934C53.6998 61.0284 56.6365 58.6567 59.1348 55.8684C63.3098 51.205 65.7965 46.0134 67.6465 41.3984C67.8949 41.3984 68.1432 41.3984 68.3832 41.3984C72.9548 41.3984 75.7648 39.5934 77.3148 38.0817C78.3448 37.1167 79.1498 35.9417 79.6715 34.64L79.9998 33.6934L79.2115 33.0784Z" fill="#2395EC"/>
<path d="M13.3337 36.6666H8.33366C7.41366 36.6666 6.66699 35.92 6.66699 35V30C6.66699 29.08 7.41366 28.3333 8.33366 28.3333H13.3337C14.2537 28.3333 15.0003 29.08 15.0003 30V35C15.0003 35.92 14.2537 36.6666 13.3337 36.6666Z" fill="#2395EC"/>
<path d="M23.3337 36.6666H18.3337C17.4137 36.6666 16.667 35.92 16.667 35V30C16.667 29.08 17.4137 28.3333 18.3337 28.3333H23.3337C24.2537 28.3333 25.0003 29.08 25.0003 30V35C25.0003 35.92 24.2537 36.6666 23.3337 36.6666Z" fill="#2395EC"/>
<path d="M33.3337 36.6666H28.3337C27.4137 36.6666 26.667 35.92 26.667 35V30C26.667 29.08 27.4137 28.3333 28.3337 28.3333H33.3337C34.2537 28.3333 35.0003 29.08 35.0003 30V35C35.0003 35.92 34.2537 36.6666 33.3337 36.6666Z" fill="#2395EC"/>
<path d="M43.3337 36.6666H38.3337C37.4137 36.6666 36.667 35.92 36.667 35V30C36.667 29.08 37.4137 28.3333 38.3337 28.3333H43.3337C44.2537 28.3333 45.0003 29.08 45.0003 30V35C45.0003 35.92 44.2537 36.6666 43.3337 36.6666Z" fill="#2395EC"/>
<path d="M23.3337 26.6666H18.3337C17.4137 26.6666 16.667 25.92 16.667 25V20C16.667 19.08 17.4137 18.3333 18.3337 18.3333H23.3337C24.2537 18.3333 25.0003 19.08 25.0003 20V25C25.0003 25.92 24.2537 26.6666 23.3337 26.6666Z" fill="#2395EC"/>
<path d="M33.3337 26.6666H28.3337C27.4137 26.6666 26.667 25.92 26.667 25V20C26.667 19.08 27.4137 18.3333 28.3337 18.3333H33.3337C34.2537 18.3333 35.0003 19.08 35.0003 20V25C35.0003 25.92 34.2537 26.6666 33.3337 26.6666Z" fill="#2395EC"/>
<path d="M43.3337 26.6666H38.3337C37.4137 26.6666 36.667 25.92 36.667 25V20C36.667 19.08 37.4137 18.3333 38.3337 18.3333H43.3337C44.2537 18.3333 45.0003 19.08 45.0003 20V25C45.0003 25.92 44.2537 26.6666 43.3337 26.6666Z" fill="#2395EC"/>
<path d="M43.3337 16.6666H38.3337C37.4137 16.6666 36.667 15.92 36.667 15V9.99998C36.667 9.07998 37.4137 8.33331 38.3337 8.33331H43.3337C44.2537 8.33331 45.0003 9.07998 45.0003 9.99998V15C45.0003 15.92 44.2537 16.6666 43.3337 16.6666Z" fill="#2395EC"/>
<path d="M53.3337 36.6666H48.3337C47.4137 36.6666 46.667 35.92 46.667 35V30C46.667 29.08 47.4137 28.3333 48.3337 28.3333H53.3337C54.2537 28.3333 55.0003 29.08 55.0003 30V35C55.0003 35.92 54.2537 36.6666 53.3337 36.6666Z" fill="#2395EC"/>
</g>
<defs>
<clipPath id="clip0_653_522">
<rect width="80" height="80" fill="white"/>
</clipPath>
</defs>
</svg>
