<svg width="80" height="80" viewBox="0 0 80 80" fill="none" xmlns="http://www.w3.org/2000/svg">
<path d="M70.333 36.8333L43.1663 9.66665C42.333 8.83331 41.1663 8.33331 39.9997 8.33331C38.833 8.33331 37.6663 8.83331 36.833 9.66665L30.9997 15.5L37.833 22.3333C38.4997 22 39.1663 21.8333 39.9997 21.8333C42.833 21.8333 44.9997 24 44.9997 26.8333C44.9997 27.6666 44.833 28.3333 44.4997 29L51.1663 35.6666C51.833 35.3333 52.4997 35.1666 53.333 35.1666C56.1663 35.1666 58.333 37.3333 58.333 40.1666C58.333 43 56.1663 45.1666 53.333 45.1666C50.4997 45.1666 48.333 43 48.333 40.1666C48.333 39.3333 48.4997 38.6666 48.833 38L42.1663 31.3333C41.9997 31.3333 41.833 31.5 41.6663 31.5V48.8333C43.6663 49.5 44.9997 51.3333 44.9997 53.5C44.9997 56.3333 42.833 58.5 39.9997 58.5C37.1663 58.5 34.9997 56.3333 34.9997 53.5C34.9997 51.3333 36.333 49.5 38.333 48.8333V31.3333C36.333 30.6666 34.9997 28.8333 34.9997 26.6666C34.9997 25.8333 35.1663 25.1666 35.4997 24.5L28.6663 17.6666L9.66634 36.8333C8.83301 37.6666 8.33301 38.8333 8.33301 40C8.33301 41.1666 8.83301 42.3333 9.66634 43.1666L36.833 70.3333C37.6663 71.1666 38.833 71.6666 39.9997 71.6666C41.1663 71.6666 42.333 71.1666 43.1663 70.3333L70.333 43.1666C71.1663 42.3333 71.6663 41.1666 71.6663 40C71.6663 38.8333 71.1663 37.6666 70.333 36.8333Z" fill="#F4511E"/>
</svg>
