<svg width="80" height="80" viewBox="0 0 80 80" fill="none" xmlns="http://www.w3.org/2000/svg">
<path d="M68.3337 8.33331H11.667L16.667 65L40.0003 71.6666L63.3337 65L68.3337 8.33331Z" fill="#E65100"/>
<path d="M40 13.3333V66.5L58.6667 61.1666L62.8333 13.3333H40Z" fill="#FF6D00"/>
<path d="M40 41.6667V35H54.3333L53.1667 54.1667L40 58.5V51.5L46.8333 49.1667L47.3333 41.6667H40ZM54.8333 28.3334L55.3333 21.6667H40V28.3334H54.8333Z" fill="white"/>
<path d="M39.9997 51.5V58.5L26.833 54.1667L26.1663 45H32.833L33.1663 49.1667L39.9997 51.5ZM31.833 28.3334H39.9997V21.6667H24.833L25.9997 41.6667H39.9997V35H32.333L31.833 28.3334Z" fill="#EEEEEE"/>
</svg>
