<svg width="806" height="708" viewBox="0 0 806 708" fill="none" xmlns="http://www.w3.org/2000/svg">
<g clip-path="url(#clip0_185_98)">
<path fill-rule="evenodd" clip-rule="evenodd" d="M787.394 409.795C794.788 402.686 801.325 395.018 807 386.921V533.442C708.509 591.466 584.306 588.831 464.822 531.509C363.297 482.802 252.584 493.228 190.264 553.143C147.361 594.392 133.35 654.445 148.779 708H35.1961C21.5828 624.592 47.8103 536.123 113.334 473.127C218.687 371.837 383.08 369.179 512.836 431.43C625.915 485.681 724.168 470.582 787.394 409.795Z" fill="#1C0D79"/>
<path d="M791.579 190.395C797.284 196.329 802.424 202.597 807 209.134V64.0784C707.776 10.0066 581.029 23.469 495.253 105.937C473.157 127.18 472.466 162.314 493.71 184.41C514.954 206.506 550.088 207.197 572.184 185.953C633.892 126.625 732.12 128.55 791.579 190.395Z" fill="url(#paint0_linear_185_98)"/>
</g>
<defs>
<linearGradient id="paint0_linear_185_98" x1="532" y1="162" x2="672" y2="42" gradientUnits="userSpaceOnUse">
<stop stop-color="#F9F9F9"/>
<stop offset="1" stop-color="#1C0D79"/>
</linearGradient>
<clipPath id="clip0_185_98">
<rect width="807" height="708" fill="white"/>
</clipPath>
</defs>
</svg>
