<svg width="72" height="80" viewBox="0 0 72 80" fill="none" xmlns="http://www.w3.org/2000/svg">
<g clip-path="url(#clip0_653_587)">
<path d="M67.3743 39.2821C67.3743 35.1808 64.0664 31.856 59.9857 31.856C59.7233 31.856 59.4644 31.8702 59.2092 31.897L69.3572 1.81372H26.2314L36.3654 31.8709C36.2167 31.8618 36.0673 31.856 35.9164 31.856C31.8359 31.856 28.5278 35.1808 28.5278 39.2821C28.5278 42.5974 30.6894 45.404 33.6728 46.3589C32.0971 49.1023 30.1144 51.5732 27.8632 53.7079C24.8022 56.6104 21.299 58.8112 17.5098 60.1675C12.9987 57.8381 10.8683 52.658 12.7907 48.1159C13.0076 47.6029 13.2294 47.0831 13.441 46.5655C16.7094 45.7988 19.1446 42.8541 19.1446 39.3354C19.1446 35.2341 15.8367 31.9093 11.756 31.9093C7.67544 31.9093 4.36741 35.2341 4.36741 39.3354C4.36741 41.8505 5.61252 44.072 7.51556 45.4154C5.68687 49.6004 2.99869 53.9802 2.16121 59.0564C1.15754 65.14 2.15797 71.5976 7.39285 75.2444C19.5845 83.7373 32.8184 69.9794 46.7718 66.521C51.8288 65.2675 57.3796 65.4695 61.835 62.8759C65.1807 60.9282 67.3863 57.7005 68.0123 54.0766C68.6307 50.4967 67.7292 46.9324 65.6558 44.0422C66.7282 42.7532 67.3743 41.0939 67.3743 39.2821Z" fill="#99425B"/>
<path d="M66.2344 53.7663C65.6909 56.9124 63.7577 59.6606 60.9304 61.3065C58.2949 62.8407 55.1367 63.2987 51.7929 63.7833C50.0016 64.0429 48.1492 64.3115 46.3397 64.76C41.555 65.9458 36.9207 68.2596 32.439 70.497C23.47 74.9747 15.7243 78.8412 8.42075 73.7537C3.07091 70.0269 3.31795 63.1317 3.94123 59.3531C4.51885 55.8525 6.08048 52.6286 7.59067 49.5106C7.85161 48.9716 8.10731 48.4425 8.35615 47.918C9.10466 48.2185 9.90081 48.4236 10.7307 48.5169C9.19344 53.6162 11.6109 59.1607 16.6852 61.7808L17.3796 62.1394L18.1151 61.8762C22.1266 60.4403 25.8229 58.1361 29.1015 55.0271C31.2207 53.0174 33.0429 50.7942 34.5405 48.4186C34.9895 48.4866 35.4487 48.5223 35.9163 48.5223C40.5733 48.5223 44.43 45.0229 45.0267 40.5033C46.933 40.4331 48.9578 40.4326 50.8751 40.5026C51.4715 45.0226 55.3283 48.5223 59.9856 48.5223C61.9328 48.5223 63.7391 47.9089 65.2271 46.8669C66.2602 48.9924 66.6458 51.384 66.2344 53.7663ZM11.7558 33.7231C14.8351 33.7231 17.3399 36.2409 17.3399 39.3356C17.3399 40.4473 17.0155 41.4838 16.4582 42.3568C15.5298 43.8117 13.9525 44.8091 12.1395 44.9335C12.0126 44.9422 11.8849 44.9482 11.7558 44.9482C11.0698 44.9482 10.4124 44.8223 9.80463 44.594C8.57521 44.1315 7.55079 43.2449 6.9064 42.1128C6.43994 41.2932 6.17179 40.3455 6.17179 39.3356C6.17179 36.2409 8.67681 33.7231 11.7558 33.7231ZM30.3322 39.2823C30.3322 36.4705 32.4002 34.1357 35.0875 33.732C35.358 33.6912 35.6348 33.6698 35.9163 33.6698C37.7063 33.6698 39.3001 34.5222 40.3223 35.8429C40.5764 36.1711 40.7967 36.5271 40.9741 36.9072C41.311 37.6291 41.5003 38.4337 41.5003 39.2823C41.5003 39.731 41.4462 40.1672 41.3468 40.5857C40.8025 42.8755 38.86 44.6255 36.4796 44.8664C36.2945 44.8851 36.1065 44.8949 35.9163 44.8949C34.8014 44.8949 33.7628 44.5635 32.8899 43.9954C31.3525 42.9945 30.3322 41.2564 30.3322 39.2823ZM53.638 32.6084C52.4418 33.7588 51.5522 35.2286 51.1092 36.8815C49.0414 36.8035 46.8487 36.8035 44.7928 36.8815C44.3206 35.1198 43.3411 33.5656 42.0236 32.3851L47.8017 20.6418L53.638 32.6084ZM28.7482 3.62763H66.8398L57.8431 30.2977C57.4531 30.3918 57.0727 30.5102 56.7035 30.6526L47.8159 12.4298L38.9033 30.5438C38.518 30.4105 38.121 30.3031 37.7146 30.2217L28.7482 3.62763ZM65.5696 39.2823C65.5696 39.8451 65.4859 40.3883 65.332 40.9012C64.9653 42.1215 64.1958 43.1671 63.1797 43.8821C62.2739 44.5194 61.1727 44.8949 59.9856 44.8949C57.4073 44.8949 55.2323 43.1289 54.593 40.7373C54.4688 40.273 54.4015 39.7854 54.4015 39.2823C54.4015 38.5151 54.5558 37.7836 54.8342 37.1171C54.9777 36.7736 55.1567 36.4489 55.3622 36.1438C56.3672 34.6531 58.063 33.6698 59.9856 33.6698C60.1619 33.6698 60.3358 33.679 60.508 33.6951C63.343 33.9607 65.5696 36.3646 65.5696 39.2823ZM69.1786 39.2823C69.1786 34.7712 65.945 31.0074 61.6858 30.2032L71.8742 0.000183105H23.7145L33.9185 30.2647C29.8071 31.1842 26.7232 34.877 26.7232 39.2823C26.7232 42.5902 28.4626 45.4959 31.0692 47.1287C29.8154 49.0062 28.3285 50.773 26.6248 52.3886C23.9226 54.9509 20.9123 56.8939 17.6669 58.1724C14.398 56.1086 13.0161 52.2165 14.4512 48.8258L14.5637 48.56C14.634 48.3941 14.7044 48.2278 14.7746 48.0614C18.365 46.8027 20.9489 43.3679 20.9489 39.3356C20.9489 34.2405 16.8249 30.0956 11.7558 30.0956C6.68679 30.0956 2.56276 34.2405 2.56276 39.3356C2.56276 41.9073 3.61443 44.2361 5.30707 45.9129C5.0003 46.57 4.67729 47.2384 4.3458 47.9227C2.79825 51.1176 1.04427 54.7387 0.380929 58.7597C-0.936544 66.7455 1.18863 73.1293 6.36487 76.7351C9.50598 78.9232 12.6956 79.7834 15.9057 79.7834C21.9501 79.7834 28.0643 76.7313 34.0444 73.7457C38.3513 71.5958 42.8048 69.3723 47.2038 68.2819C48.8405 67.8762 50.5249 67.632 52.3081 67.3736C55.844 66.8609 59.5005 66.3309 62.7392 64.4455C66.4935 62.2598 69.0635 58.5936 69.7902 54.387C70.414 50.7757 69.6633 47.1586 67.8323 44.0912C68.6858 42.6894 69.1786 41.0427 69.1786 39.2823Z" fill="white"/>
</g>
<defs>
<clipPath id="clip0_653_587">
<rect width="72" height="80" fill="white"/>
</clipPath>
</defs>
</svg>
