<svg width="80" height="80" viewBox="0 0 80 80" fill="none" xmlns="http://www.w3.org/2000/svg">
<path d="M10 70V10H70V70H10Z" fill="#FFD600"/>
<path d="M49.2297 54.9117C50.383 56.785 51.6364 58.58 54.2914 58.58C56.5214 58.58 57.6914 57.4717 57.6914 55.9384C57.6914 54.1034 56.4814 53.4517 54.028 52.3834L52.683 51.81C48.8014 50.1634 46.2197 48.1 46.2197 43.7417C46.2197 39.725 49.2947 36.6684 54.0997 36.6684C57.5214 36.6684 59.9797 37.8534 61.753 40.9567L57.563 43.635C56.6413 41.9884 55.6447 41.34 54.0997 41.34C52.523 41.34 51.5247 42.335 51.5247 43.635C51.5247 45.2417 52.5247 45.8917 54.833 46.8867L56.178 47.46C60.753 49.4084 63.333 51.3984 63.333 55.8717C63.333 60.6917 59.5264 63.3334 54.4164 63.3334C49.418 63.3334 46.5797 60.825 44.9997 57.72L49.2297 54.9117ZM29.9197 55.0484C30.763 56.5584 32.0447 57.72 33.888 57.72C35.6514 57.72 36.6664 57.0234 36.6664 54.315V36.6667H42.2214V55.1684C42.2214 60.78 38.9664 63.3334 34.213 63.3334C29.918 63.3334 26.818 60.4234 25.5547 57.72L29.9197 55.0484Z" fill="#000001"/>
</svg>
