<svg width="300" height="237" viewBox="0 0 300 237" fill="none" xmlns="http://www.w3.org/2000/svg">
<path d="M40.6289 140.47C34.2064 140.47 29 145.677 29 152.099C29 158.522 34.2064 163.728 40.6289 163.728C47.0514 163.728 52.2578 158.522 52.2578 152.099C52.2578 145.677 57.4643 140.47 63.8868 140.47C70.3092 140.47 75.5157 145.677 75.5157 152.099C75.5157 158.522 70.3092 163.728 63.8868 163.728" stroke="#FFD749" stroke-width="8" stroke-linecap="round"/>
<circle cx="134.883" cy="104.967" r="6.5" fill="#FFD749"/>
<circle cx="253.5" cy="200.214" r="6.5" fill="#FFD749"/>
<path d="M132.104 223.571L147.92 200.314L163.735 223.571" stroke="#FFD749" stroke-width="8" stroke-linecap="round" stroke-linejoin="round"/>
<path d="M238 104.368V89.7152C238 84.1919 242.478 79.7144 248.001 79.7144V79.7144C253.524 79.7144 258.002 84.1919 258.002 89.7152V104.368V89.7152C258.002 84.1919 262.479 79.7144 268.003 79.7144C273.526 79.7144 278.003 84.1919 278.003 89.7152V104.368" stroke="#FFD749" stroke-width="8" stroke-linecap="round" stroke-linejoin="round"/>
<path d="M205.831 21.7144H181.178" stroke="#FFD749" stroke-width="8" stroke-linecap="round" stroke-linejoin="round"/>
<path d="M59.6289 4.71409C66.0514 4.71409 71.2578 9.92054 71.2578 16.343C71.2578 22.7655 66.0514 27.9719 59.6289 27.9719C53.2064 27.9719 48 22.7655 48 16.343C48 9.92054 53.2064 4.71409 59.6289 4.71409Z" stroke="#FFD749" stroke-width="8" stroke-linecap="round"/>
</svg>
