<svg width="300" height="236" viewBox="0 0 300 236" fill="none" xmlns="http://www.w3.org/2000/svg">
<path d="M40.6289 139.756C34.2064 139.756 29 144.963 29 151.385C29 157.807 34.2064 163.014 40.6289 163.014C47.0514 163.014 52.2578 157.807 52.2578 151.385C52.2578 144.963 57.4643 139.756 63.8868 139.756C70.3092 139.756 75.5157 144.963 75.5157 151.385C75.5157 157.807 70.3092 163.014 63.8868 163.014" stroke="#9549E1" stroke-width="8" stroke-linecap="round"/>
<circle cx="132.104" cy="101.474" r="3.72125" fill="#9549E1"/>
<circle cx="250.721" cy="196.721" r="3.72125" fill="#9549E1"/>
<path d="M132.104 222.857L147.92 199.599L163.735 222.857" stroke="#9549E1" stroke-width="8" stroke-linecap="round" stroke-linejoin="round"/>
<path d="M238 103.653V89.0009C238 83.4775 242.478 79 248.001 79V79C253.524 79 258.002 83.4775 258.002 89.0009V103.653V89.0009C258.002 83.4775 262.479 79 268.003 79C273.526 79 278.003 83.4775 278.003 89.0009V103.653" stroke="#9549E1" stroke-width="8" stroke-linecap="round" stroke-linejoin="round"/>
<path d="M205.831 21H181.178" stroke="#9549E1" stroke-width="8" stroke-linecap="round" stroke-linejoin="round"/>
<path d="M59.6289 3.99973C66.0514 3.99973 71.2578 9.20618 71.2578 15.6287C71.2578 22.0511 66.0514 27.2576 59.6289 27.2576C53.2064 27.2576 48 22.0511 48 15.6287C48 9.20618 53.2064 3.99973 59.6289 3.99973Z" stroke="#9549E1" stroke-width="8" stroke-linecap="round"/>
</svg>
