<svg width="40" height="19" viewBox="0 0 40 19" fill="none" xmlns="http://www.w3.org/2000/svg">
<path d="M9.12712 3.66016C5.78743 3.66016 3.08008 6.34226 3.08008 9.65081C3.08008 12.9594 5.78743 15.6415 9.12712 15.6415C12.4668 15.6415 15.1742 12.9594 15.1742 9.65081C15.1742 6.34226 17.8815 3.66016 21.2212 3.66016C24.5609 3.66016 27.2682 6.34226 27.2682 9.65081C27.2682 12.9594 24.5609 15.6415 21.2212 15.6415" stroke="#0D0D0D" stroke-width="6" stroke-linecap="round"/>
<path d="M36.4201 8.06592C38.2645 8.18388 39.8535 6.841 39.9691 5.06651C40.0848 3.29201 38.6833 1.75787 36.8389 1.6399C35.5205 1.55558 34.3326 2.21764 33.7201 3.25021C33.6597 3.37822 33.5969 3.50206 33.5317 3.62183C32.1653 6.1337 28.5604 5.63636 26.6606 3.66017L29.0804 11.5606C29.8604 8.21212 31.6837 6.32491 35.3299 7.81643C35.6673 7.95446 36.034 8.04122 36.4201 8.06592Z" fill="#0D0D0D"/>
</svg>
