<svg width="177" height="33" viewBox="0 0 177 33" fill="none" xmlns="http://www.w3.org/2000/svg">
<path d="M15.6289 5.16382C9.20645 5.16382 4 10.3703 4 16.7927C4 23.2152 9.20645 28.4217 15.6289 28.4217C22.0514 28.4217 27.2578 23.2152 27.2578 16.7927C27.2578 10.3703 32.4643 5.16382 38.8868 5.16382C45.3092 5.16382 50.5157 10.3703 50.5157 16.7927C50.5157 23.2152 45.3092 28.4217 38.8868 28.4217" stroke="#9549E1" stroke-width="8" stroke-linecap="round"/>
<path d="M64.5156 28.4217L80.331 5.16382L96.1463 28.4217" stroke="#9549E1" stroke-width="8" stroke-linecap="round" stroke-linejoin="round"/>
<path d="M111.146 28.8171V15.1647C111.146 9.64136 115.624 5.16382 121.147 5.16382C126.671 5.16382 131.148 9.64136 131.148 15.1647M131.148 15.1647V28.8171M131.148 15.1647C131.148 9.64136 135.626 5.16382 141.149 5.16382C146.672 5.16382 151.15 9.64136 151.15 15.1647V18.1638V28.8171" stroke="#9549E1" stroke-width="8" stroke-linecap="round" stroke-linejoin="round"/>
<path d="M169.718 13.7162C173.265 13.9452 176.321 11.3384 176.543 7.89381C176.765 4.4492 174.07 1.47116 170.523 1.24216C167.988 1.07848 165.704 2.36366 164.526 4.36805C164.41 4.61654 164.289 4.85694 164.163 5.08944C161.536 9.96542 154.5 9.16382 150.95 5.16385L155.106 20.2884C155.549 13.4277 160.609 10.3366 167.621 13.2319C168.27 13.4998 168.976 13.6683 169.718 13.7162Z" fill="#9549E1"/>
</svg>
