<svg width="93" height="19" viewBox="0 0 93 19" fill="none" xmlns="http://www.w3.org/2000/svg">
<path d="M9.12351 3.66016C5.78528 3.66016 3.0791 6.34226 3.0791 9.65081C3.0791 12.9594 5.78528 15.6415 9.12351 15.6415C12.4617 15.6415 15.1679 12.9594 15.1679 9.65081C15.1679 6.34226 17.8741 3.66016 21.2123 3.66016C24.5506 3.66016 27.2567 6.34226 27.2567 9.65081C27.2567 12.9594 24.5506 15.6415 21.2123 15.6415" stroke="#9549E1" stroke-width="6" stroke-linecap="round"/>
<path d="M34.5332 15.6415L42.7536 3.66016L50.974 15.6415" stroke="#9549E1" stroke-width="6" stroke-linecap="round" stroke-linejoin="round"/>
<path d="M58.7705 15.8452V8.81212C58.7705 5.96677 61.0978 3.66016 63.9687 3.66016C66.8396 3.66016 69.1669 5.96677 69.1669 8.81212M69.1669 8.81212V15.8452M69.1669 8.81212C69.1669 5.96677 71.4942 3.66016 74.3651 3.66016C77.236 3.66016 79.5633 5.96677 79.5633 8.81212V10.3571V15.8452" stroke="#9549E1" stroke-width="6" stroke-linecap="round" stroke-linejoin="round"/>
<path d="M89.2148 8.06592C91.0584 8.18388 92.6467 6.841 92.7622 5.06651C92.8778 3.29201 91.477 1.75787 89.6334 1.6399C88.3155 1.55558 87.1282 2.21764 86.5159 3.25021C86.4556 3.37822 86.3928 3.50206 86.3276 3.62183C84.9619 6.1337 81.3047 5.72075 79.4595 3.66017L81.6198 11.4516C81.85 7.91731 84.4804 6.32491 88.125 7.81643C88.4623 7.95446 88.8288 8.04122 89.2148 8.06592Z" fill="#9549E1"/>
</svg>
