<svg width="75" height="33" viewBox="0 0 75 33" fill="none" xmlns="http://www.w3.org/2000/svg">
<path d="M15.6289 5.16382C9.20644 5.16382 4 10.3703 4 16.7927C4 23.2152 9.20644 28.4217 15.6289 28.4217C22.0514 28.4217 27.2578 23.2152 27.2578 16.7927C27.2578 10.3703 32.4643 5.16382 38.8867 5.16382C45.3092 5.16382 50.5157 10.3703 50.5157 16.7927C50.5157 23.2152 45.3092 28.4217 38.8867 28.4217" stroke="#0D0D0D" stroke-width="8" stroke-linecap="round"/>
<path d="M68.1145 13.7162C71.6615 13.9452 74.7172 11.3384 74.9396 7.89381C75.162 4.4492 72.4668 1.47116 68.9199 1.24216C66.3845 1.07848 64.1002 2.36366 62.9222 4.36805C62.8061 4.61654 62.6852 4.85694 62.5599 5.08944C59.9323 9.96542 52.9996 9 49.3463 5.16385L53.9996 20.5C55.4996 14 59.006 10.3366 66.0179 13.2319C66.6668 13.4998 67.372 13.6683 68.1145 13.7162Z" fill="#0D0D0D"/>
</svg>
