<svg width="76" height="15" viewBox="0 0 76 15" fill="none" xmlns="http://www.w3.org/2000/svg">
<path d="M7.53417 2.35523C4.84907 2.35523 2.67236 4.56402 2.67236 7.28871C2.67236 10.0134 4.84907 12.2222 7.53417 12.2222C10.2193 12.2222 12.396 10.0134 12.396 7.28871C12.396 4.56402 14.5727 2.35522 17.2578 2.35522C19.9429 2.35522 22.1196 4.56402 22.1196 7.28871C22.1196 10.0134 19.9429 12.2222 17.2578 12.2222" stroke="white" stroke-width="4" stroke-linecap="round"/>
<path d="M27.9727 12.2222L34.5847 2.35522L41.1968 12.2222" stroke="white" stroke-width="4" stroke-linecap="round" stroke-linejoin="round"/>
<path d="M47.468 12.39V6.59802C47.468 4.25479 49.34 2.35522 51.6492 2.35522C53.9584 2.35522 55.8303 4.25479 55.8303 6.59802M55.8303 6.59802V12.39M55.8303 6.59802C55.8303 4.25479 57.7023 2.35522 60.0115 2.35522C62.3207 2.35522 64.1926 4.25479 64.1926 6.59802V7.87038V12.39" stroke="white" stroke-width="4" stroke-linecap="round" stroke-linejoin="round"/>
<path d="M72.4072 5.98354C73.8901 6.08069 75.1676 4.97479 75.2606 3.51344C75.3536 2.05209 74.2268 0.788678 72.7439 0.691528C71.6839 0.622086 70.7289 1.16731 70.2364 2.01766L72.4072 5.98354Z" fill="white"/>
<path d="M72.4072 5.98354L70.2364 2.01766C70.1878 2.12308 70.1373 2.22507 70.0849 2.32371C69.9768 2.5837 69.9093 2.86536 69.8905 3.16163C69.8354 4.02719 70.2082 4.82331 70.8295 5.34878C71.0376 5.52475 71.2736 5.67037 71.5306 5.77808C71.8019 5.89176 72.0967 5.9632 72.4072 5.98354Z" fill="white"/>
<path d="M70.8295 5.34878C70.2082 4.82331 69.8354 4.02719 69.8905 3.16163C69.9093 2.86536 69.9768 2.5837 70.0849 2.32371C68.9864 4.3923 66.0447 4.05223 64.5606 2.35528L66.2981 8.77177C66.4833 5.86116 68.5991 4.54977 71.5306 5.77808C71.2736 5.67037 71.0376 5.52475 70.8295 5.34878Z" fill="white"/>
</svg>
