<svg width="367" height="149" viewBox="0 0 367 149" fill="none" xmlns="http://www.w3.org/2000/svg">
<g clip-path="url(#clip0_376_906)">
<path d="M11.3908 91.559C7.23885 91.559 3.87305 94.9219 3.87305 99.0703C3.87305 103.219 7.23885 106.582 11.3908 106.582C15.5428 106.582 18.9086 103.219 18.9086 99.0703C18.9086 94.9219 22.2744 91.559 26.4263 91.559C30.5784 91.559 33.944 94.9219 33.944 99.0703C33.944 103.219 30.5784 106.582 26.4263 106.582" stroke="#9549E1" stroke-width="7" stroke-linecap="round"/>
<path d="M72.3241 72.8249C74.6449 72.8249 76.5262 70.9451 76.5262 68.6263C76.5262 66.3075 74.6449 64.4278 72.3241 64.4278C70.0034 64.4278 68.1221 66.3075 68.1221 68.6263C68.1221 70.9451 70.0034 72.8249 72.3241 72.8249Z" fill="#9549E1"/>
<path d="M149.007 134.348C151.328 134.348 153.209 132.468 153.209 130.149C153.209 127.83 151.328 125.951 149.007 125.951C146.686 125.951 144.805 127.83 144.805 130.149C144.805 132.468 146.686 134.348 149.007 134.348Z" fill="#9549E1"/>
<path d="M70.5283 145.236L80.7525 130.213L90.9768 145.236" stroke="#9549E1" stroke-width="7" stroke-linecap="round" stroke-linejoin="round"/>
<path d="M138.987 68.239V58.7741C138.987 55.2066 141.882 52.3148 145.453 52.3148C149.023 52.3148 151.918 55.2066 151.918 58.7741M151.918 58.7741V68.239M151.918 58.7741C151.918 55.2064 154.812 52.3148 158.383 52.3148C161.954 52.3148 164.849 55.207 164.849 58.7746V68.239" stroke="#9549E1" stroke-width="7" stroke-linecap="round" stroke-linejoin="round"/>
<path d="M118.19 14.8512H102.252" stroke="#9549E1" stroke-width="7" stroke-linecap="round" stroke-linejoin="round"/>
<path d="M23.675 3.87018C27.8268 3.87018 31.1927 7.23317 31.1927 11.3816C31.1927 15.5301 27.8268 18.8931 23.675 18.8931C19.5231 18.8931 16.1572 15.5301 16.1572 11.3816C16.1572 7.23317 19.5231 3.87018 23.675 3.87018Z" stroke="#9549E1" stroke-width="7" stroke-linecap="round"/>
<path d="M209.166 91.559C205.014 91.559 201.649 94.9219 201.649 99.0703C201.649 103.219 205.014 106.582 209.166 106.582C213.319 106.582 216.683 103.219 216.683 99.0703C216.683 94.9219 220.05 91.559 224.202 91.559C228.353 91.559 231.719 94.9219 231.719 99.0703C231.719 103.219 228.353 106.582 224.202 106.582" stroke="#9549E1" stroke-width="7" stroke-linecap="round"/>
<path d="M270.1 72.8248C272.42 72.8248 274.302 70.945 274.302 68.6263C274.302 66.3075 272.42 64.4277 270.1 64.4277C267.779 64.4277 265.897 66.3075 265.897 68.6263C265.897 70.945 267.779 72.8248 270.1 72.8248Z" fill="#9549E1"/>
<path d="M346.78 134.348C349.101 134.348 350.982 132.468 350.982 130.149C350.982 127.83 349.101 125.951 346.78 125.951C344.459 125.951 342.578 127.83 342.578 130.149C342.578 132.468 344.459 134.348 346.78 134.348Z" fill="#9549E1"/>
<path d="M268.303 145.236L278.527 130.213L288.75 145.236" stroke="#9549E1" stroke-width="7" stroke-linecap="round" stroke-linejoin="round"/>
<path d="M336.761 68.239V58.7741C336.761 55.2066 339.656 52.3148 343.226 52.3148C346.798 52.3148 349.691 55.2066 349.691 58.7741M349.691 58.7741V68.239M349.691 58.7741C349.691 55.2064 352.587 52.3148 356.156 52.3148C359.728 52.3148 362.622 55.207 362.622 58.7746V68.239" stroke="#9549E1" stroke-width="7" stroke-linecap="round" stroke-linejoin="round"/>
<path d="M315.965 14.8512H300.026" stroke="#9549E1" stroke-width="7" stroke-linecap="round" stroke-linejoin="round"/>
<path d="M221.45 3.87018C225.6 3.87018 228.967 7.23317 228.967 11.3816C228.967 15.5301 225.6 18.8931 221.45 18.8931C217.297 18.8931 213.931 15.5301 213.931 11.3816C213.931 7.23317 217.297 3.87018 221.45 3.87018Z" stroke="#9549E1" stroke-width="7" stroke-linecap="round"/>
</g>
<defs>
<clipPath id="clip0_376_906">
<rect width="367" height="149" fill="white"/>
</clipPath>
</defs>
</svg>
