<svg width="80" height="80" viewBox="0 0 80 80" fill="none" xmlns="http://www.w3.org/2000/svg">
<path d="M0.00333333 58.4016H3.20333V46.5933L7.64833 56.6883C8.19666 57.9466 8.94666 58.3916 10.4183 58.3916C11.89 58.3916 12.61 57.9466 13.1583 56.6883L17.6033 46.8516V58.4016H20.8033V46.3049C20.8033 45.1433 20.3417 44.5799 19.3883 44.2899C17.11 43.5733 15.58 44.1916 14.8883 45.7433L10.33 56.0099L5.915 45.7433C5.25166 44.1933 3.695 43.5733 1.415 44.2899C0.461666 44.5799 0 45.1416 0 46.3033V58.3999L0.00333333 58.4016Z" fill="#0074A3"/>
<path d="M22.4014 48.8016H25.6014V55.56C25.5764 55.8933 25.708 56.7783 27.2514 56.8016C28.038 56.815 31.953 56.8016 32.0014 56.8016V48.8016H35.2014C35.2147 48.8016 35.2014 58.7483 35.2014 58.79C35.218 61.2433 32.1547 61.56 30.7464 61.6016H22.403V60.0016C22.4197 60.0016 30.3814 60.0033 30.4047 60.0016C32.218 59.81 32.003 58.8116 32.003 58.5083V58.4016H26.983C24.1997 58.3766 22.4247 57.15 22.4047 55.7516C22.4014 55.6216 22.4647 48.8616 22.4014 48.8016Z" fill="#0074A3"/>
<path d="M36.8019 58.4016H44.8135C45.8635 58.4016 46.8835 58.1816 47.6935 57.8016C49.0435 57.1816 49.6002 56.3432 49.6002 55.2416V52.9616C49.6002 50.5016 46.5502 50.4016 44.8002 50.4016H41.6002C40.3419 50.4016 40.1502 49.6416 40.0002 48.8016V47.2016C40.1502 46.5616 40.4302 45.7016 41.5385 45.6016C42.8269 45.6016 49.5985 45.6016 49.5985 45.6016V44.0016H41.9885C40.7302 44.0016 36.7985 44.1516 36.7985 47.2016V49.1799C36.7985 50.5799 38.0285 51.7199 40.6985 51.9999C40.9985 52.0199 41.2985 52.0399 41.5969 52.0399C41.5969 52.0399 44.7069 51.9799 44.7969 51.9999C46.5969 51.9999 46.3969 53.3999 46.3969 53.5999V55.1999C46.3969 55.4199 46.3469 56.7999 44.7785 56.7999C44.6585 56.7999 36.7969 56.7999 36.7969 56.7999V58.4016H36.8019Z" fill="#F57F17"/>
<path d="M67.2002 55.1333C67.2002 57.0649 68.2919 58.1483 71.1869 58.3649C71.4569 58.3833 71.7285 58.3999 72.0002 58.3999H80.0002V56.7999H72.6085C70.9569 56.7999 70.4002 56.1066 70.4002 55.1149V43.9999H67.2002V55.1333Z" fill="#F57F17"/>
<path d="M51.1729 55.2016V47.2016C51.1729 45.5016 52.0062 44.3283 54.3662 44.0016H55.4862H61.2312H62.1062C64.4662 44.3283 65.5728 45.4999 65.5728 47.2016V55.1716C65.5728 56.5499 65.2145 57.2899 64.0462 57.7699L66.5262 59.9999H62.9262L61.1428 58.3999H59.0478L55.4878 58.4199C54.9728 58.4199 54.4295 58.3482 53.8328 58.1849C52.0428 57.6966 51.1729 56.7566 51.1729 55.2016ZM54.3728 55.2016C54.5362 55.9799 55.1612 56.8016 56.2728 56.8016H59.3795L57.5995 55.2016H61.2245L62.0895 56.0049C62.0895 56.0049 62.3995 55.7516 62.3995 55.2016C62.3995 54.6516 62.3728 47.2016 62.3728 47.2016C62.2095 46.4783 61.4762 45.6016 60.3928 45.6016H56.2745C55.0262 45.6016 54.3745 46.5149 54.3745 47.3649L54.3728 55.2016Z" fill="#F57F17"/>
<path d="M76.9986 42.315C75.2802 42.2683 73.9686 42.4283 72.8469 42.9C72.5286 43.035 72.0202 43.0383 71.9669 43.4383C72.1419 43.6216 72.1686 43.8966 72.3086 44.1216C72.5752 44.5549 73.0286 45.1366 73.4319 45.4399C73.8736 45.7733 74.3286 46.1299 74.8002 46.4183C75.6402 46.9299 76.5786 47.2233 77.3886 47.7366C77.8652 48.0383 78.3386 48.4216 78.8052 48.7616C79.0352 48.9316 79.1886 49.1933 79.4886 49.2999C79.4886 49.2833 79.4886 49.2683 79.4886 49.2516C79.3319 49.0516 79.2902 48.7766 79.1469 48.5666C78.9352 48.3549 78.7236 48.1433 78.5119 47.9316C77.8919 47.1083 77.1019 46.3833 76.2652 45.7833C75.5969 45.3033 74.1019 44.6549 73.8219 43.8783C73.8052 43.8616 73.7902 43.8466 73.7719 43.8283C74.2452 43.775 74.8002 43.6033 75.2369 43.4866C75.9719 43.2899 76.6269 43.3416 77.3852 43.1449C77.7269 43.0466 78.0686 42.95 78.4102 42.8516C78.4102 42.7866 78.4102 42.7216 78.4102 42.6566C78.0269 42.2633 77.7519 41.7433 77.3352 41.3866C76.2402 40.455 75.0469 39.525 73.8186 38.7483C73.1369 38.3183 72.2936 38.0383 71.5719 37.6733C71.3286 37.55 70.9019 37.4866 70.7419 37.2833C70.3619 36.8 70.1569 36.185 69.8636 35.6233C69.2502 34.4433 68.6469 33.1533 68.1052 31.9116C67.7336 31.065 67.4919 30.2283 67.0302 29.4683C64.8119 25.8216 62.4236 23.62 58.7269 21.4566C57.9402 20.9966 56.9919 20.815 55.9902 20.5766C55.4519 20.545 54.9152 20.5116 54.3769 20.4783C54.0486 20.34 53.7086 19.94 53.3986 19.745C52.1736 18.97 49.0302 17.2866 48.1236 19.5C47.5502 20.8966 48.9802 22.26 49.4919 22.9683C49.8502 23.465 50.3102 24.0216 50.5669 24.5816C50.7352 24.9483 50.7652 25.3166 50.9086 25.705C51.2636 26.6616 51.8252 27.7516 52.2852 28.6366C52.5169 29.085 52.7736 29.555 53.0669 29.955C53.2469 30.2 53.5552 30.3083 53.6052 30.6883C53.3036 31.11 53.2869 31.765 53.1169 32.3016C52.3536 34.71 52.6419 37.7016 53.7519 39.4816C54.0919 40.0283 54.8952 41.2016 55.9986 40.7516C56.9636 40.3583 56.7486 39.14 57.0236 38.065C57.0852 37.8216 57.0469 37.6433 57.1702 37.48C57.1702 37.4966 57.1702 37.5116 57.1702 37.53C57.4636 38.115 57.7552 38.7033 58.0502 39.2883C58.7019 40.3366 59.8569 41.4316 60.8336 42.1716C61.3402 42.5549 61.7402 43.2183 62.3969 43.4416C62.3969 43.4249 62.3969 43.41 62.3969 43.3916C62.3802 43.3916 62.3652 43.3916 62.3469 43.3916C62.2202 43.1933 62.0202 43.1116 61.8586 42.9516C61.4769 42.5766 61.0502 42.1116 60.7352 41.6816C59.8452 40.4733 59.0586 39.15 58.3419 37.7733C58.0002 37.115 57.7019 36.3916 57.4136 35.7216C57.3019 35.4633 57.3036 35.0733 57.0719 34.94C56.7552 35.43 56.2919 35.8266 56.0469 36.405C55.6569 37.33 55.6052 38.46 55.4619 39.6283C55.3752 39.6583 55.4136 39.6383 55.3636 39.6766C54.6836 39.5116 54.4436 38.8133 54.1902 38.2116C53.5502 36.6916 53.4319 34.245 53.9952 32.4966C54.1402 32.0433 54.7986 30.6183 54.5336 30.2C54.4069 29.7816 53.9869 29.54 53.7536 29.2216C53.4619 28.8283 53.1736 28.3083 52.9719 27.8533C52.4486 26.6683 51.9519 25.29 51.4002 24.0916C51.1369 23.5183 50.6919 22.94 50.3252 22.4316C49.9202 21.8683 49.4652 21.4533 49.1519 20.7716C49.0402 20.53 48.8886 20.1416 49.0536 19.8916C49.1069 19.7233 49.1802 19.6533 49.3469 19.5983C49.6302 19.3783 50.4186 19.67 50.7152 19.7933C51.4986 20.1183 52.1519 20.4283 52.8152 20.8683C53.1336 21.08 53.4552 21.4883 53.8402 21.6016C53.9869 21.6016 54.1336 21.6016 54.2802 21.6016C54.9686 21.76 55.7386 21.6516 56.3802 21.8466C57.5169 22.1916 58.5336 22.7283 59.4569 23.3116C62.2736 25.09 64.5752 27.62 66.1502 30.64C66.4036 31.1266 66.5136 31.59 66.7352 32.105C67.1852 33.145 67.7536 34.215 68.2002 35.2316C68.6469 36.2466 69.0836 37.27 69.7152 38.115C70.0486 38.5583 71.3319 38.7966 71.9136 39.0433C72.3219 39.2166 72.9919 39.395 73.3786 39.6283C74.1186 40.075 74.8352 40.6066 75.5269 41.0933C75.8802 41.3383 76.9452 41.8733 76.9986 42.315Z" fill="#0074A3"/>
<path d="M55.1632 23.7049C54.8049 23.6983 54.5515 23.7433 54.2832 23.8033C54.2832 23.8199 54.2832 23.8349 54.2832 23.8533C54.2999 23.8533 54.3149 23.8533 54.3332 23.8533C54.5049 24.2033 54.8049 24.4316 55.0165 24.7333C55.1799 25.0749 55.3415 25.4166 55.5049 25.7583C55.5215 25.7416 55.5365 25.7266 55.5532 25.7099C55.8549 25.4966 55.9949 25.1566 55.9932 24.6349C55.8715 24.5066 55.8532 24.3466 55.7482 24.1949C55.6082 23.9899 55.3382 23.8749 55.1632 23.7049Z" fill="#0074A3"/>
</svg>
