<svg width="80" height="80" viewBox="0 0 80 80" fill="none" xmlns="http://www.w3.org/2000/svg">
<path d="M40.0004 72.89C58.165 72.89 72.8904 58.1646 72.8904 40C72.8904 21.8353 58.165 7.10999 40.0004 7.10999C21.8357 7.10999 7.11035 21.8353 7.11035 40C7.11035 58.1646 21.8357 72.89 40.0004 72.89Z" fill="url(#paint0_linear_653_513)"/>
<path d="M31.6917 26.7117H26.6533V53.3717H31.6917V26.7117Z" fill="white"/>
<path d="M53.3133 26.595H48.3916V50.9116H53.3133V26.595Z" fill="url(#paint1_linear_653_513)"/>
<path d="M61.3016 63.49L56.9466 65.15L26.6533 26.7117H32.5133L61.3016 63.49Z" fill="url(#paint2_linear_653_513)"/>
<defs>
<linearGradient id="paint0_linear_653_513" x1="40.0004" y1="72.89" x2="40.0004" y2="7.10999" gradientUnits="userSpaceOnUse">
<stop stop-color="#0A070A"/>
<stop offset="0.465" stop-color="#2B2B2B"/>
<stop offset="1" stop-color="#4B4B4B"/>
</linearGradient>
<linearGradient id="paint1_linear_653_513" x1="50.8533" y1="55.035" x2="50.8533" y2="30.7183" gradientUnits="userSpaceOnUse">
<stop offset="0.377" stop-color="white" stop-opacity="0"/>
<stop offset="0.666" stop-color="white" stop-opacity="0.3"/>
<stop offset="0.988" stop-color="white"/>
</linearGradient>
<linearGradient id="paint2_linear_653_513" x1="36.8367" y1="35.7383" x2="61.1017" y2="67.5483" gradientUnits="userSpaceOnUse">
<stop offset="0.296" stop-color="white"/>
<stop offset="0.521" stop-color="white" stop-opacity="0.5"/>
<stop offset="0.838" stop-color="white" stop-opacity="0"/>
</linearGradient>
</defs>
</svg>
