<svg width="80" height="80" viewBox="0 0 80 80" fill="none" xmlns="http://www.w3.org/2000/svg">
<path d="M40.0113 75.6983C39.0547 75.6983 38.1063 75.4483 37.268 74.965L28.5347 69.7933C27.2297 69.0633 27.8663 68.805 28.2963 68.6567C30.0363 68.0483 30.388 67.91 32.2447 66.855C32.4397 66.7433 32.6947 66.7833 32.8947 66.9017L39.6047 70.8833C39.8463 71.015 40.1913 71.015 40.4147 70.8833L66.5763 55.7817C66.818 55.6433 66.9763 55.3633 66.9763 55.075V24.8867C66.9763 24.585 66.8197 24.3167 66.5713 24.1667L40.4213 9.07668C40.1797 8.93334 39.858 8.93334 39.6163 9.07668L13.4697 24.165C13.2163 24.3083 13.0547 24.59 13.0547 24.8783V55.0683C13.0547 55.3567 13.2113 55.6317 13.4613 55.7683L20.6263 59.9067C24.5163 61.8517 26.893 59.56 26.893 57.255V27.46C26.893 27.035 27.2263 26.7067 27.653 26.7067H30.9663C31.3797 26.7067 31.7197 27.0333 31.7197 27.46V57.27C31.7197 62.4567 28.8913 65.4367 23.973 65.4367C22.4597 65.4367 21.268 65.4367 17.9413 63.8L11.078 59.845C9.38134 58.8617 8.33301 57.0267 8.33301 55.07V24.88C8.33301 22.915 9.38134 21.0817 11.0763 20.1117L37.2663 5.00334C38.923 4.06668 41.123 4.06668 42.768 5.00334L68.9247 20.1183C70.6113 21.0933 71.6663 22.9217 71.6663 24.8867V55.0767C71.6663 57.035 70.6113 58.8617 68.923 59.845L42.7663 74.9517C41.928 75.4367 40.978 75.685 40.0097 75.685" fill="#21A366"/>
<path d="M48.0937 54.895C36.6471 54.895 34.2471 49.64 34.2471 45.2334C34.2471 44.815 34.5854 44.48 35.0054 44.48H38.3854C38.7587 44.48 39.0737 44.7517 39.1321 45.12C39.6421 48.5634 41.1621 50.3 48.0837 50.3C53.5971 50.3 55.9421 49.055 55.9421 46.13C55.9421 44.4467 55.2737 43.1967 46.7087 42.3584C39.5437 41.6517 35.1171 40.0734 35.1171 34.3434C35.1171 29.065 39.5704 25.9217 47.0287 25.9217C55.4054 25.9217 59.5571 28.83 60.0804 35.0767C60.1004 35.2934 60.0221 35.5017 59.8771 35.66C59.7337 35.81 59.5304 35.9017 59.3204 35.9017H55.9221C55.5687 35.9017 55.2604 35.6534 55.1887 35.3117C54.3704 31.69 52.3921 30.5317 47.0154 30.5317C40.9971 30.5317 40.2971 32.6267 40.2971 34.1984C40.2971 36.1034 41.1221 36.66 49.2421 37.735C57.2837 38.8017 61.1021 40.3084 61.1021 45.96C61.1021 51.6567 56.3471 54.925 48.0571 54.925" fill="#21A366"/>
</svg>
