<svg width="124" height="146" viewBox="0 0 124 146" fill="none" xmlns="http://www.w3.org/2000/svg">
<path fill-rule="evenodd" clip-rule="evenodd" d="M4.05025 134.05L11.4497 141.45C12.7625 142.762 14.543 143.5 16.3995 143.5H107.912C109.879 143.5 111.756 142.672 113.082 141.22L119.669 134.005C120.847 132.715 121.5 131.032 121.5 129.285V60.9171C121.5 59.0502 120.754 57.2606 119.428 55.9462L67.8264 4.78519C65.1381 2.11988 60.818 2.0747 58.0746 4.68321L4.17657 55.9305C2.78679 57.2519 2 59.0857 2 61.0034V129.1C2 130.957 2.7375 132.738 4.05025 134.05ZM67.8117 108.446C65.1125 111.001 60.8875 111.001 58.1883 108.446L40.2732 91.4907C37.3926 88.7644 37.3503 84.1917 40.18 81.4125L58.095 63.8174C60.8182 61.1429 65.1819 61.1429 67.905 63.8174L85.82 81.4125C88.6497 84.1917 88.6074 88.7644 85.7268 91.4907L67.8117 108.446Z" fill="#368292"/>
<path d="M11.4497 141.45L4.05025 134.05M11.4497 141.45C12.7625 142.762 14.543 143.5 16.3995 143.5M11.4497 141.45V141.45C12.7625 142.763 14.543 143.5 16.3995 143.5V143.5M4.05025 134.05C2.7375 132.738 2 130.957 2 129.1M4.05025 134.05V134.05C2.7375 132.737 2 130.957 2 129.1V129.1M2 129.1V61.0034M2 61.0034C2 59.0857 2.78679 57.2519 4.17657 55.9305M2 61.0034V61.0034C2 59.0857 2.78679 57.2519 4.17657 55.9305V55.9305M4.17657 55.9305L58.0746 4.68321M58.0746 4.68321C60.818 2.0747 65.1381 2.11988 67.8264 4.78519M58.0746 4.68321V4.68321C60.818 2.0747 65.1382 2.11988 67.8264 4.78519V4.78519M67.8264 4.78519L119.428 55.9462M119.428 55.9462C120.754 57.2606 121.5 59.0502 121.5 60.9171M119.428 55.9462V55.9462C120.754 57.2606 121.5 59.0502 121.5 60.9171V60.9171M121.5 60.9171V129.285M121.5 129.285C121.5 131.032 120.847 132.715 119.669 134.005M121.5 129.285V129.285C121.5 131.032 120.847 132.715 119.669 134.005V134.005M119.669 134.005L113.082 141.22M113.082 141.22C111.756 142.672 109.879 143.5 107.912 143.5M113.082 141.22V141.22C111.756 142.672 109.879 143.5 107.912 143.5V143.5M107.912 143.5H16.3995M67.905 63.8174L85.82 81.4125C88.6497 84.1917 88.6074 88.7644 85.7268 91.4907L67.8117 108.446C65.1125 111.001 60.8875 111.001 58.1883 108.446L40.2732 91.4907C37.3926 88.7644 37.3503 84.1917 40.18 81.4125L58.095 63.8174C60.8182 61.1429 65.1819 61.1429 67.905 63.8174Z" stroke="white" stroke-width="4"/>
</svg>
