<svg width="80" height="80" viewBox="0 0 80 80" fill="none" xmlns="http://www.w3.org/2000/svg">
<path fill-rule="evenodd" clip-rule="evenodd" d="M22.5 9.68912C23.5065 9.10807 24.9736 8.92902 27.0658 9.55267C29.1649 10.1784 31.6569 11.5537 34.3813 13.6974C35.0568 14.2289 35.7402 14.8026 36.4286 15.4166C34.3108 17.6723 32.2119 20.2179 30.1876 23.0046C26.7621 23.3644 23.5082 23.9093 20.4958 24.6155C20.3084 23.7122 20.1532 22.8336 20.0306 21.9828C19.5363 18.5516 19.5913 15.7057 20.099 13.575C20.6049 11.4513 21.4935 10.2702 22.5 9.68912ZM37.4733 9.76807C38.3112 10.4274 39.1546 11.1402 40 11.9034C40.8453 11.1402 41.6886 10.4274 42.5266 9.76807C45.546 7.39212 48.5991 5.62747 51.506 4.76103C54.4195 3.8925 57.419 3.86902 60 5.35902C62.5805 6.84902 64.06 9.45847 64.765 12.4161C65.468 15.3667 65.466 18.8929 64.918 22.6959C64.766 23.7512 64.5705 24.838 64.3325 25.9517C65.416 26.3022 66.455 26.6762 67.445 27.0722C71.0125 28.4992 74.067 30.2609 76.271 32.345C78.48 34.434 80 37.02 80 40C80 42.98 78.48 45.566 76.271 47.6551C74.067 49.7392 71.0125 51.501 67.445 52.928C66.455 53.324 65.416 53.698 64.3325 54.0485C64.5705 55.162 64.766 56.249 64.9185 57.304C65.466 61.107 65.468 64.6335 64.765 67.584C64.06 70.5415 62.5805 73.151 60 74.641C57.4195 76.131 54.4195 76.1075 51.506 75.239C48.5992 74.3725 45.5461 72.608 42.5267 70.232C41.6887 69.5725 40.8453 68.8595 40 68.0965C39.1545 68.8595 38.3111 69.5725 37.4732 70.232C34.4538 72.608 31.4007 74.3725 28.4939 75.239C25.5802 76.1075 22.5807 76.131 19.9999 74.641C17.4191 73.151 15.9397 70.5415 15.235 67.584C14.532 64.6335 14.5337 61.107 15.0816 57.304C15.2337 56.249 15.4293 55.162 15.6676 54.0485C14.584 53.6975 13.545 53.324 12.555 52.928C8.9876 51.501 5.9329 49.7392 3.72916 47.6551C1.52014 45.566 0 42.98 0 40C0 37.02 1.52014 34.434 3.72916 32.345C5.9329 30.2609 8.9876 28.4992 12.555 27.0722C13.545 26.6762 14.584 26.3022 15.6676 25.9517C15.4293 24.838 15.2338 23.7512 15.0817 22.6959C14.5338 18.8929 14.5321 15.3666 15.2351 12.4161C15.9398 9.45847 17.4193 6.84902 20 5.35902C22.5807 3.86901 25.5804 3.89249 28.4941 4.76102C31.4008 5.62747 34.4538 7.39207 37.4733 9.76807ZM36.8373 22.5513C37.8867 21.2597 38.944 20.0464 40 18.9178C41.0559 20.0464 42.1132 21.2597 43.1626 22.5513C42.1185 22.5173 41.0637 22.5 40 22.5C38.9362 22.5 37.8815 22.5173 36.8373 22.5513ZM43.5712 15.4166C45.689 17.6724 47.7879 20.2179 49.8123 23.0046C53.2375 23.3644 56.4915 23.9093 59.504 24.6155C59.6915 23.7122 59.8465 22.8336 59.9695 21.9829C60.4635 18.5516 60.4085 15.7057 59.901 13.575C59.395 11.4513 58.5065 10.2702 57.5 9.68912C56.4935 9.10807 55.0265 8.92902 52.934 9.55267C50.835 10.1784 48.3429 11.5537 45.6185 13.6974C44.9431 14.2289 44.2598 14.8026 43.5712 15.4166ZM40 27.5C42.4216 27.5 44.7819 27.5943 47.0594 27.7728C48.3528 29.6559 49.6145 31.6528 50.8255 33.75C52.036 35.8472 53.1345 37.9383 54.1185 39.9999C53.1345 42.0616 52.036 44.1528 50.825 46.25C49.6144 48.3472 48.3526 50.344 47.0592 52.227C44.7818 52.406 42.4216 52.5 40 52.5C37.5784 52.5 35.2182 52.406 32.9407 52.227C31.6472 50.344 30.3855 48.3472 29.1747 46.25C27.9639 44.1528 26.8653 42.0616 25.8812 39.9999C26.8653 37.9383 27.9637 35.8472 29.1746 33.75C30.3854 31.6528 31.6471 29.6559 32.9405 27.7728C35.218 27.5942 37.5783 27.5 40 27.5ZM55.1555 31.25C55.6875 32.1712 56.1995 33.0932 56.6925 34.0144C57.286 32.4599 57.808 30.9376 58.2575 29.4589C56.7525 29.1088 55.173 28.7998 53.53 28.5368C54.0815 29.424 54.6235 30.3288 55.1555 31.25ZM55.1555 48.75C55.687 47.8288 56.1995 46.9067 56.6925 45.9855C57.286 47.5401 57.8085 49.0623 58.2575 50.541C56.7525 50.891 55.173 51.2 53.5295 51.463C54.081 50.576 54.6235 49.6712 55.1555 48.75ZM59.6245 39.9999C61.0255 43.1464 62.181 46.2369 63.0755 49.1989C63.9515 48.9096 64.79 48.6046 65.588 48.2854C68.807 46.9979 71.244 45.5274 72.8355 44.0223C74.4215 42.5223 75 41.1622 75 40C75 38.8379 74.4215 37.4778 72.8355 35.9777C71.244 34.4727 68.807 33.0021 65.588 31.7146C64.79 31.3954 63.9515 31.0904 63.0755 30.8011C62.181 33.763 61.0255 36.8535 59.6245 39.9999ZM49.8122 56.9955C53.2375 56.6355 56.4915 56.0905 59.504 55.3845C59.6915 56.288 59.847 57.1665 59.9695 58.017C60.464 61.4485 60.4085 64.2945 59.901 66.425C59.395 68.549 58.5065 69.73 57.5 70.311C56.4935 70.892 55.0265 71.071 52.934 70.4475C50.835 69.8215 48.343 68.4465 45.6186 66.3025C44.9431 65.771 44.2598 65.1975 43.5712 64.5835C45.689 62.3275 47.7879 59.782 49.8122 56.9955ZM43.1625 57.449C42.1131 58.7405 41.0558 59.9535 40 61.082C38.944 59.9535 37.8868 58.7405 36.8374 57.4485C37.8815 57.4825 38.9363 57.5 40 57.5C41.0636 57.5 42.1184 57.4825 43.1625 57.449ZM24.8446 48.75C25.3764 49.6712 25.9188 50.576 26.4702 51.463C24.827 51.2 23.2476 50.891 21.7422 50.541C22.1917 49.0623 22.7138 47.54 23.3076 45.9854C23.8002 46.9067 24.3127 47.8288 24.8446 48.75ZM30.1877 56.9955C26.7622 56.6355 23.5082 56.0905 20.4957 55.3845C20.3083 56.288 20.1531 57.1665 20.0305 58.017C19.5361 61.4485 19.5912 64.2945 20.0989 66.425C20.6049 68.549 21.4935 69.73 22.4999 70.311C23.5063 70.892 24.9735 71.071 27.0656 70.4475C29.1648 69.8215 31.6568 68.4465 34.3812 66.3025C35.0567 65.771 35.7401 65.1975 36.4286 64.5835C34.3108 62.3275 32.212 59.782 30.1877 56.9955ZM20.3753 39.9999C18.9742 43.1464 17.819 46.2369 16.9244 49.1989C16.0485 48.9096 15.21 48.6046 14.412 48.2854C11.1932 46.9979 8.75615 45.5274 7.1647 44.0223C5.57855 42.5223 5 41.1622 5 40C5 38.8379 5.57855 37.4778 7.1647 35.9777C8.75615 34.4727 11.1932 33.0021 14.412 31.7146C15.21 31.3954 16.0485 31.0904 16.9245 30.8011C17.8192 33.7631 18.9742 36.8535 20.3753 39.9999ZM23.3076 34.0144C22.7139 32.4599 22.1918 30.9376 21.7423 29.4589C23.2476 29.1088 24.827 28.7998 26.4701 28.5368C25.9187 29.424 25.3763 30.3288 24.8445 31.25C24.3127 32.1712 23.8002 33.0932 23.3076 34.0144ZM46.25 40C46.25 43.4518 43.4518 46.25 40 46.25C36.5482 46.25 33.75 43.4518 33.75 40C33.75 36.5483 36.5482 33.75 40 33.75C43.4518 33.75 46.25 36.5483 46.25 40Z" fill="#149ECA"/>
</svg>
