<svg width="80" height="80" viewBox="0 0 80 80" fill="none" xmlns="http://www.w3.org/2000/svg">
<path d="M73.3037 39.3917C73.4187 32.29 71.8187 23.845 68.4853 13.9367L65.872 6.16669L62.322 13.555C62.132 13.95 61.9153 14.3367 61.6887 14.7184C55.857 9.71169 48.2903 6.66669 40.0003 6.66669C21.5903 6.66669 6.66699 21.59 6.66699 40C6.66699 58.41 21.5903 73.3333 40.0003 73.3333C58.4103 73.3333 73.3337 58.41 73.3337 40C73.3337 39.795 73.307 39.5967 73.3037 39.3917Z" fill="#8BC34A"/>
<path d="M65.6419 54.2633C60.4369 61.4333 51.2235 61.8183 42.5519 61.6667H31.2502H28.0202C35.4002 59.0117 39.7919 58.38 44.2769 56C52.7235 51.5583 61.0735 41.84 62.8119 31.73C59.5952 41.4567 49.8469 49.8133 40.9635 53.2117C34.8769 55.5333 23.8835 57.7867 23.8835 57.7867L23.4385 57.545C15.9552 53.78 15.7285 37.0233 29.3335 31.6133C35.2902 29.2417 40.9885 30.545 47.4235 28.9583C54.2935 27.2717 62.2402 21.945 65.4735 15C69.0935 26.1117 73.4502 43.51 65.6419 54.2633ZM26.1135 64.075C25.6435 64.6583 24.9252 65 24.1752 65C22.8035 65 21.6835 63.8717 21.6835 62.5C21.6835 61.1283 22.8119 60 24.1752 60C24.7435 60 25.3035 60.1967 25.7435 60.56C26.8102 61.425 26.9769 63.0083 26.1135 64.075Z" fill="white"/>
</svg>
