<svg width="80" height="80" viewBox="0 0 80 80" fill="none" xmlns="http://www.w3.org/2000/svg">
<path d="M70 10H10V70H70V10Z" fill="#1976D2"/>
<path d="M45.8169 36.6667H23.7119V42.1067H31.6402V66.6667H37.9219V42.1067H45.8169V36.6667Z" fill="white"/>
<path d="M65.3236 43.4733C65.3236 43.4733 62.3453 41.4866 58.9786 41.4866C55.6119 41.4866 54.4003 43.0866 54.4003 44.7966C54.4003 49.21 66.7019 48.7683 66.7019 57.65C66.7019 71.3316 47.9453 65.2633 47.9453 65.2633V58.7C47.9453 58.7 51.5319 61.4033 55.8336 61.4033C60.1353 61.4033 59.9719 58.59 59.9719 58.2033C59.9719 54.1216 47.7803 54.1216 47.7803 45.0733C47.7803 32.7716 65.5436 37.625 65.5436 37.625L65.3236 43.4733Z" fill="white"/>
</svg>
